PathFileType	4	(X/Y/Z)	T00_Trial_0-100.trc
DataRate	CameraRate	NumFrames	NumMarkers	Units	OrigDataRate	OrigDataStartFrame	OrigNumFrames
60	60	9	22	m	60	50	100
Frame#	Time	Hip			RHip			RKnee			RAnkle			RBigToe			RSmallToe			RHeel			LHip			LKnee			LAnkle			LBigToe			LSmallToe			LHeel			Neck			Head			Nose			RShoulder			RElbow			RWrist			LShoulder			LElbow			LWrist		
		X1	Y1	Z1	X2	Y2	Z2	X3	Y3	Z3	X4	Y4	Z4	X5	Y5	Z5	X6	Y6	Z6	X7	Y7	Z7	X8	Y8	Z8	X9	Y9	Z9	X10	Y10	Z10	X11	Y11	Z11	X12	Y12	Z12	X13	Y13	Z13	X14	Y14	Z14	X15	Y15	Z15	X16	Y16	Z16	X17	Y17	Z17	X18	Y18	Z18	X19	Y19	Z19	X20	Y20	Z20	X21	Y21	Z21	X22	Y22	Z22
50	0.8333333333333334	-0.13039668663866813	0.9464259884691641	-1.0326351584528701	-0.22269392714525574	0.9969305567772552	-1.0440442974001285	-0.5276436383656818	0.7532023994340663	-0.8738767144976781	-0.7948316874277341	0.4587542707072923	-0.90091900977279	-0.8645228769751894	0.38339442230794474	-0.7711396064637112	-0.8797764856421123	0.3836564329675961	-0.8622158533026298	-0.8211360534523616	0.3955239357019345	-0.9784346448810468	-0.0531503304850006	0.8752083906437869	-1.0501386781213793	-0.06789300032288	0.48366646806120506	-0.953424970907227	-0.025695048392042966	0.16044828094487837	-1.1416842353358936	-0.026247965730069732	0.0815055756802722	-1.0140107280493142	0.015751036262135677	0.07541337070779636	-1.0471378370012294	-0.02226233955157722	0.1135476594056369	-1.199274275560889	0.2462428209168154	1.3203944498258926	-0.9962759263263227	0.3945757945934456	1.4626075379191807	-0.8618147642232097	0.3198331948544477	1.3310201226504648	-0.8715354208092213	0.07622691371144405	1.4120016190292872	-1.0315577525654083	-0.17656928089029422	1.4968539046769924	-1.0329527457194285	-0.09237280733799948	1.650275432260566	-0.8078322979597926	0.32966422096119946	1.1524621178759595	-1.0734002517722057	0.3649983394195907	0.8781626729417874	-1.0675503588953577	0.3927055022535417	0.6291556982231826	-0.9869535994398724
51	0.85	-0.13300273151309777	0.9479844556649504	-1.0348181460143566	-0.22371131560916996	0.9990803905198562	-1.0422664316748125	-0.5227259863587319	0.7535801836188779	-0.8641940830279669	-0.7851969513255462	0.4537895410922736	-0.8874065692537255	-0.8510129487690482	0.381231927142168	-0.7564327975433099	-0.8793611954342925	0.3826473136538212	-0.8539672266061331	-0.8174350228224431	0.39081948263709465	-0.9615758920861405	-0.05421391928001434	0.8781709088462128	-1.0494929324339957	-0.06743887129240751	0.4846957624951976	-0.9557229860516403	-0.0251683118396907	0.15928913856990304	-1.1423330840889632	-0.026766846796776822	0.0817231367523486	-1.0145161017777522	0.016137176123448435	0.0755674988105189	-1.0474674076240247	-0.02137659582837994	0.11284046069881748	-1.2003119838641934	0.24599210211872155	1.321446819010836	-0.9891092876804279	0.3951862391741778	1.461623476785632	-0.853664612234467	0.3194898053138643	1.3300572353340825	-0.8643560533749431	0.07559398971292258	1.413061939487425	-1.0244509797160553	-0.17703360249092023	1.499056720085679	-1.015204186309883	-0.08282712194137018	1.649598573112219	-0.7934183372478738	0.32887599983291743	1.1533593673020737	-1.06847276237702	0.3660360235357846	0.8803246411109081	-1.0664003893022507	0.3956470562393826	0.6286572717995568	-0.9863068176149636
52	0.8666666666666667	-0.1358276810435787	0.9493584886131708	-1.0395559607385791	-0.22436405310187543	1.000897974457645	-1.0409358643428455	-0.5165458576651512	0.7527856374565212	-0.854228296896032	-0.772000150496126	0.4459460103818791	-0.8736403769515574	-0.8332228818310137	0.3764361388081457	-0.7432993405056815	-0.8739642957248315	0.3793939310637151	-0.8451111229970751	-0.8073781856576874	0.38376277786551855	-0.9446199404785052	-0.05498784786505597	0.8812436920735446	-1.0495096659198848	-0.06637526184486921	0.48582468734539797	-0.9588812163202155	-0.02414322430348277	0.15801581320633634	-1.1434285417727754	-0.027096671905550384	0.08174618492541545	-1.0151196592093448	0.016011194398277792	0.07521049755873577	-1.048529733397077	-0.02007664509494321	0.11161206497904085	-1.2017862379157729	0.2450391068734993	1.3221579990163876	-0.9821603902617667	0.3951036462196969	1.4606469217166922	-0.8455844087735073	0.31844288331315684	1.3289036171159847	-0.8575685215028577	0.07467071348464818	1.4139947829261073	-1.0170364984516111	-0.17779857067335825	1.500843439208144	-0.9985414528393395	-0.07432735289859353	1.6478990338364312	-0.7802428083737607	0.3278137055773726	1.154561536843348	-1.063362695700319	0.3672635865971196	0.8828925350891269	-1.06498581753308	0.39859560799029237	0.6292280347037952	-0.985724751147982
53	0.8833333333333333	-0.13841925828339993	0.9505552217214431	-1.0453341877720792	-0.22490021187633769	1.002127919557094	-1.0396596022441569	-0.50916643835512	0.7505228062787501	-0.8441174395472374	-0.7553777286838038	0.4355671562390903	-0.8601326013226835	-0.8108653388009271	0.3687931671119664	-0.7318205735247875	-0.8618558523028058	0.3740994735679019	-0.8343179758654077	-0.7910776015732176	0.3746809777204503	-0.9273503978077099	-0.05580734242313684	0.8841819156814439	-1.050669551752799	-0.06487950952885353	0.48712463503617853	-0.9626935836094552	-0.022691980901766204	0.1568667395689744	-1.1445757324847838	-0.02712902712951308	0.08151535168784148	-1.015152117544836	0.01606854714288672	0.07453814763225897	-1.0489885413427837	-0.018479087411967708	0.11003091584467654	-1.203307730577253	0.24355589254135018	1.3226222427983467	-0.9752227257070563	0.39437301664387897	1.4596692077836544	-0.8372715757643875	0.31703095930335035	1.3275285628228886	-0.8511022384810748	0.0733611716500056	1.4148888692535841	-1.008976656905527	-0.1789187665104884	1.5021563765830783	-0.9826024050941552	-0.06776773028581742	1.6450936017412852	-0.770480979307648	0.32654146853210475	1.1560269587104552	-1.0579431767887069	0.36863587100601947	0.885609751214627	-1.0635896946337375	0.4014180989816851	0.6308555182565	-0.9851010321131871
54	0.9	-0.14028634038626925	0.9516976669569507	-1.0501416167493454	-0.22548858194565513	1.002683219951226	-1.0382357401241848	-0.5004929580334257	0.7465829853495323	-0.8341627977114333	-0.7355509384083952	0.423166798868462	-0.8475834207898993	-0.7824724183432122	0.3579499659758889	-0.721196840652215	-0.8424292891963631	0.36712705228425413	-0.820958228021667	-0.7694833527734193	0.3639473545150241	-0.9106391067769085	-0.05685033593298398	0.886913680198506	-1.0529816544162487	-0.06331933313684798	0.48868057663783665	-0.9668043768726933	-0.021016784557605847	0.15606935448621706	-1.1454640516547228	-0.02688454807701087	0.08108739718704883	-1.0138032012854339	0.01673395836691962	0.07375183312399639	-1.0476919705434935	-0.016697479445452232	0.10838778801726696	-1.204668178441576	0.24179694267093496	1.3230965703895952	-0.9679248391154096	0.39306814828447656	1.458948023104351	-0.8286441763943271	0.31555747650929566	1.3262521388981274	-0.8447362384159427	0.07151096120011172	1.4158321499533364	-1.0001778247402269	-0.18062169155868402	1.5029474422251203	-0.9672001023804765	-0.06371330625245898	1.6411855283668442	-0.7648083816353088	0.32517230112401874	1.1576993216588256	-1.0520113656322807	0.37008690057144633	0.888381037192435	-1.0623047718367293	0.40401502382650356	0.6334868594950704	-0.9842713733860212
55	0.9166666666666666	-0.14118883965331896	0.9528667087143539	-1.052672392759472	-0.22618802165864468	1.0027267462252358	-1.036525077363924	-0.4903623125741695	0.7409080138582311	-0.8247808888823496	-0.712886766192984	0.4093383655246938	-0.8368045631424664	-0.7465116128951113	0.343693326916471	-0.7106229826034354	-0.8161704109632495	0.35877544451088456	-0.8058545333247878	-0.7439861067773795	0.3519392141313207	-0.896434499472223	-0.058022888756649016	0.8894993455926481	-1.0556817650198154	-0.06216789546543085	0.490542943583646	-0.9708402538337874	-0.019363215970289224	0.1557431746012137	-1.1461001127450527	-0.02645177531258422	0.08063683589906329	-1.0106380195728872	0.017770782404768263	0.07304207104444556	-1.0445314065949918	-0.014848535295877145	0.10696750414744158	-1.2059177738736697	0.23996063537482235	1.3238191016254082	-0.9599619364837746	0.3911772589823612	1.4589337152243784	-0.8199640292590292	0.31400019146836045	1.3255768234733396	-0.8379948993897179	0.06916962746317681	1.4168891273131263	-0.9906610358624556	-0.1831145213736187	1.5032154667755409	-0.9525196440218352	-0.062299046815209425	1.6362451333775265	-0.7615687137576315	0.3237986902655796	1.1595543105109178	-1.0455577626524208	0.3715429888847878	0.8914272279881676	-1.06065553324893	0.40640163744519814	0.6370584732557169	-0.9831022374795941
56	0.9333333333333332	-0.1409214761935615	0.9541167399959788	-1.0519065540203316	-0.2270062375458489	1.0025550634720664	-1.0342856254944004	-0.47867988069217204	0.7336209071561435	-0.8163611279468548	-0.6879568941793509	0.39487247975085626	-0.8287890975586614	-0.7032983531567202	0.3259686920248214	-0.701002083448083	-0.7844511973726437	0.34898248497136825	-0.7915415204813441	-0.7156653106733032	0.3390013668271152	-0.8865199477214114	-0.058850346360367824	0.8920735253977804	-1.056976578881523	-0.06180998622762507	0.4926899309121047	-0.974352500686617	-0.017954203712344862	0.1558258505684111	-1.1466848802415892	-0.025889618546402846	0.08043114349329926	-1.005952050337589	0.018671516663921875	0.07270230282008298	-1.0403161490273283	-0.013134769047666986	0.10597358667916944	-1.2071349499652704	0.23809668441346638	1.3249329494716833	-0.951229117678981	0.38855311583035357	1.4600824416196343	-0.8115544878116434	0.311941484604456	1.3258820073955473	-0.8299210551559216	0.06656724105710682	1.4181346937347252	-0.9806083657774967	-0.18641862524886285	1.502937964970835	-0.9390075258027251	-0.06352707939066173	1.630408327016358	-0.7575269973372022	0.32248829094252573	1.1617215865183075	-1.0387992091667575	0.37295259904234845	0.8950247234222326	-1.057974211658924	0.4086160123047695	0.6414560275688294	-0.9814659927372595
57	0.95	-0.13915706653043708	0.9555368172941083	-1.046539440136758	-0.22798050543540152	1.0023859256071281	-1.03122431278191	-0.46540663433397716	0.724952400168784	-0.809043651280795	-0.661548657824715	0.3808511744165718	-0.8247037118140624	-0.6548554076163527	0.305083482210097	-0.6936520815271127	-0.7480117903592195	0.336779586876599	-0.7799238251530615	-0.6848140638588669	0.32552703186096094	-0.88164264998388	-0.05845383474533905	0.8948288778792705	-1.0543055121291436	-0.06229986328362122	0.49503957157037426	-0.9768576974850942	-0.016972486241297786	0.15611004677145096	-1.147413707896905	-0.02525818460868581	0.08076978913569328	-1.0006041351113246	0.01919986397302701	0.0730394279264901	-1.0360998939038977	-0.011853385403937442	0.10543046627699709	-1.2083380329345594	0.2360065615652459	1.3264617555249625	-0.9417790420382794	0.38493620036572335	1.4626088315340864	-0.8032865135863811	0.30862368305368665	1.327264551549278	-0.8191745348976821	0.06382337861675713	1.419643812412075	-0.9703172478450056	-0.19041210608250703	1.5019930250812779	-0.9271314541696297	-0.06743798559747974	1.6238001666632857	-0.7498448255315405	0.3212533731816659	1.1644673228917461	-1.03189859628332	0.37427043336758226	0.89925511453455	-1.0538825079664262	0.41063787456083617	0.6464291859359413	-0.9791362177028713
58	0.9666666666666668	-0.13607965494551072	0.957100039575188	-1.036570861155126	-0.2291599136085371	1.002247002704755	-1.0270490760669717	-0.4504523404981067	0.7151142070699521	-0.802691026512539	-0.6345880133536033	0.36844454111195835	-0.825700621831643	-0.6035563096538129	0.2821941661758413	-0.6879218060035179	-0.7051592799612519	0.32001951708085696	-0.7687193225631435	-0.651089152980904	0.31183357979513165	-0.881400073253825	-0.05607063044644711	0.8979357254871116	-1.0458823404445825	-0.063338850798427	0.49751907929730677	-0.9779964181648918	-0.016556732208534486	0.1563453554889378	-1.1484139576489925	-0.02466823323708974	0.08183699843373543	-0.9954770386499219	0.01947031774382837	0.07414026305513528	-1.0327210198749317	-0.011309471728667373	0.10514434414043655	-1.2095169712758898	0.23331322715029348	1.3283451990390878	-0.9317516188896394	0.38007797553147915	1.4662966355270106	-0.7939803362094712	0.3033887791995656	1.3295672020511273	-0.8048359133256633	0.060750715669522795	1.4214711545196081	-0.9599984461792143	-0.19500743797418893	1.5001761867588268	-0.917094047742712	-0.07388554440160298	1.6165274137378818	-0.7375810013695819	0.3199985763036516	1.1680122863372766	-1.0247871637951078	0.375388734269536	0.9040640099683033	-1.048322379431989	0.41240903555120156	0.6515609421722873	-0.975834697116747
